# Blender 3.6.0
# www.blender.org
mtllib BeamBlock3_low.mtl
o LP_Beam_Block3
v -4.901000 5.999999 4.890000
v -4.901000 5.999999 -4.890000
v -4.901000 -0.000000 -4.890000
v -4.901000 -0.000000 4.890000
v 3.901000 5.999999 4.890000
v 3.901000 5.999999 -4.890000
v 3.901000 -0.000000 -4.890000
v 3.901000 -0.000000 4.890000
v -5.000000 5.949999 4.683572
v -5.000000 5.654585 5.000000
v -4.877306 5.949999 5.000000
v -5.000000 5.949999 -4.744451
v -4.795484 5.949999 -5.000000
v -5.000000 5.584526 -5.000000
v 3.793446 5.949999 -5.000000
v 4.000000 5.949999 -4.786441
v 4.000000 5.731903 -5.000000
v 4.000000 5.949999 4.845079
v 3.739156 5.950000 5.000000
v 4.000000 5.607413 5.000000
v 3.847480 0.049999 -5.000000
v 4.000000 0.423782 -5.000000
v 4.000000 0.049999 -4.813979
v -5.000000 0.049999 -4.832246
v -5.000000 0.350244 -5.000000
v -4.782902 0.049999 -5.000000
v -4.756737 0.049999 5.000000
v -5.000000 0.440611 5.000000
v -5.000000 0.049999 4.741786
v 4.000000 0.049999 4.769330
v 4.000000 0.403657 5.000000
v 3.806444 0.049999 5.000000
vn 0.4508 0.8926 -0.0000
vn -0.0000 1.0000 -0.0000
vn -0.0000 -1.0000 -0.0000
vn -0.0000 -0.0000 1.0000
vn 1.0000 -0.0000 -0.0000
vn -0.0000 0.9104 -0.4138
vn -0.4508 0.8926 -0.0000
vn -1.0000 -0.0000 -0.0000
vn -0.8709 0.3571 0.3377
vn -0.7366 0.3316 -0.5895
vn -0.0000 -0.0000 -1.0000
vn 0.6296 0.4824 -0.6090
vn -0.0000 0.9104 0.4138
vn 0.4790 0.3467 0.8064
vn 0.7310 -0.3263 -0.5993
vn 0.4508 -0.8926 -0.0000
vn -0.5635 -0.3883 -0.7292
vn -0.0000 -0.9104 -0.4138
vn -0.6902 -0.3174 0.6503
vn -0.4508 -0.8926 -0.0000
vn 0.7201 -0.3413 0.6042
vn -0.0000 -0.9104 0.4138
vt 0.449078 0.488336
vt 0.444085 0.493472
vt 0.444085 0.005406
vt 0.449078 0.007680
vt 0.004887 0.495212
vt 0.004887 0.007146
vt 0.894493 0.005500
vt 0.894493 0.494500
vt 0.454393 0.494500
vt 0.454393 0.005500
vt 0.547777 0.509678
vt 0.553671 0.500000
vt 0.640400 0.500000
vt 0.646110 0.513042
vt 0.646110 0.943865
vt 0.641186 0.950000
vt 0.554287 0.950000
vt 0.547777 0.937837
vt 0.997777 0.490699
vt 0.991547 0.500000
vt 0.903078 0.500000
vt 0.899443 0.489322
vt 0.899443 0.007746
vt 0.905153 -0.000000
vt 0.991882 -0.000000
vt 0.997777 0.011533
vt 0.010205 0.500732
vt 0.438771 0.499035
vt 0.000000 0.017518
vt 0.000000 0.488019
vt 0.547777 0.978845
vt 0.541266 1.000000
vt 0.454367 1.000000
vt 0.449443 0.984179
vt 0.449443 0.512777
vt 0.455534 0.500000
vt 0.542772 0.500000
vt 0.547776 0.508388
vt 0.000315 0.002031
vt 0.006122 0.001703
vt 0.000390 0.501148
vt 0.744443 0.939145
vt 0.739439 0.950000
vt 0.652201 0.950000
vt 0.646110 0.939774
vt 0.646110 0.510328
vt 0.649745 0.500000
vt 0.738213 0.500000
vt 0.744443 0.507626
vt 0.449311 0.499218
vt 0.436062 0.000000
vt 0.449443 0.000300
vt 0.457069 0.500000
vt 0.449443 0.500000
vt 0.449443 0.490699
vt 0.449443 0.011533
vt 0.899443 0.491612
vt 0.899443 0.500000
vt 0.888588 0.500000
vt 0.887280 0.000000
vt 0.899443 0.000000
vt 0.899443 0.021155
vt 0.449443 0.000000
vt 0.459121 0.000000
s 0
f 16/1/1 6/2/1 5/3/1 18/4/1
f 5/3/2 6/2/2 2/5/2 1/6/2
f 4/7/3 3/8/3 7/9/3 8/10/3
f 32/11/4 31/12/4 20/13/4 19/14/4 11/15/4 10/16/4 28/17/4 27/18/4
f 23/19/5 22/20/5 17/21/5 16/22/5 18/23/5 20/24/5 31/25/5 30/26/5
f 13/27/6 2/5/6 6/2/6 15/28/6
f 9/29/7 1/6/7 2/5/7 12/30/7
f 29/31/8 28/32/8 10/33/8 9/34/8 12/35/8 14/36/8 25/37/8 24/38/8
f 1/6/9 9/29/9 10/39/9 11/40/9
f 12/30/10 2/5/10 13/27/10 14/41/10
f 26/42/11 25/43/11 14/44/11 13/45/11 15/46/11 17/47/11 22/48/11 21/49/11
f 15/28/12 6/2/12 16/1/12 17/50/12
f 19/51/13 5/3/13 1/6/13 11/40/13
f 18/4/14 5/3/14 19/51/14 20/52/14
f 21/53/15 22/54/15 23/55/15 7/9/15
f 7/9/16 23/55/16 30/56/16 8/10/16
f 3/8/17 24/57/17 25/58/17 26/59/17
f 3/8/18 26/59/18 21/53/18 7/9/18
f 4/7/19 27/60/19 28/61/19 29/62/19
f 4/7/20 29/62/20 24/57/20 3/8/20
f 8/10/21 30/56/21 31/63/21 32/64/21
f 8/10/22 32/64/22 27/60/22 4/7/22
