# Blender 3.6.0
# www.blender.org
mtllib BeamSmall_low.mtl
o LP_Small_Beam
v -2.350176 30.000000 2.500000
v -2.500000 30.000000 2.355801
v -2.500000 29.788498 2.500000
v 2.318005 30.000000 2.500000
v 2.500000 29.752926 2.500000
v 2.500000 30.000000 2.432291
v 2.500000 30.000000 -2.356674
v 2.500000 29.765089 -2.500000
v 2.293753 30.000000 -2.500000
v -2.500000 29.701391 -2.500000
v -2.500000 30.000000 -2.281344
v -2.330116 30.000000 -2.500000
v -2.500000 0.000000 2.398057
v -2.382493 0.000000 2.500000
v -2.500000 0.113137 2.500000
v 2.500000 0.000000 2.386098
v 2.500000 0.078397 2.500000
v 2.439998 0.000000 2.500000
v 2.351443 0.000000 -2.500000
v 2.500000 0.240157 -2.500000
v 2.500000 0.000000 -2.395084
v -2.174566 0.000000 -2.500000
v -2.500000 0.000000 -2.372983
v -2.500000 0.152501 -2.500000
vn -0.0000 -0.0000 1.0000
vn -0.0000 1.0000 -0.0000
vn -0.6224 0.4409 0.6467
vn 0.3377 0.2488 0.9078
vn 0.5102 0.4479 -0.7342
vn -0.7203 0.4098 -0.5596
vn 1.0000 -0.0000 -0.0000
vn -0.5417 -0.5627 0.6244
vn -0.0000 -1.0000 -0.0000
vn 0.7326 -0.5607 0.3859
vn -1.0000 -0.0000 -0.0000
vn 0.5433 -0.3361 -0.7693
vn -0.2873 -0.6130 -0.7360
vn -0.0000 -0.0000 -1.0000
vt 0.332987 0.337407
vt 0.333858 0.333408
vt 0.663538 0.333408
vt 0.666283 0.345540
vt 0.666283 0.656717
vt 0.663933 0.666704
vt 0.334243 0.666704
vt 0.332987 0.658871
vt 0.332987 0.010043
vt 0.346730 0.000483
vt 0.654838 -0.000000
vt 0.666158 0.014534
vt 0.666158 0.323131
vt 0.656175 0.332743
vt 0.345114 0.333231
vt 0.332987 0.328744
vt 0.666223 0.332862
vt 0.333061 0.333408
vt 0.333058 0.000655
vt 0.666249 0.000173
vt 0.999545 0.326302
vt 0.996877 0.333296
vt 0.668859 0.333296
vt 0.666249 0.323742
vt 0.666249 0.004513
vt 0.668994 0.000000
vt 0.998674 -0.000000
vt 0.999545 0.007593
vt 0.326150 0.332996
vt 0.332938 0.325156
vt 0.332872 0.332923
vt 0.008543 0.333708
vt 0.000091 0.312057
vt 0.000137 0.010679
vt 0.007122 0.000771
vt 0.325405 0.000057
vt 0.332987 0.004036
vt 0.332942 0.000000
vt 0.999579 0.659908
vt 0.998322 0.666704
vt 0.668632 0.666704
vt 0.666283 0.657092
vt 0.666283 0.347983
vt 0.669600 0.333408
vt 0.997884 0.333408
vt 0.999579 0.341875
vt 0.000000 0.000664
vt 0.000000 0.333649
vt 0.332987 0.688397
vt 0.334681 0.666704
vt 0.662965 0.666704
vt 0.666283 0.678028
vt 0.666283 0.986252
vt 0.663673 1.000000
vt 0.335655 1.000000
vt 0.332987 0.990097
s 0
f 18/1/1 17/2/1 5/3/1 4/4/1 1/5/1 3/6/1 15/7/1 14/8/1
f 7/9/2 9/10/2 12/11/2 11/12/2 2/13/2 1/14/2 4/15/2 6/16/2
f 1/14/3 2/13/3 3/17/3
f 4/15/4 5/18/4 6/16/4
f 7/9/5 8/19/5 9/10/5
f 10/20/6 11/12/6 12/11/6
f 21/21/7 20/22/7 8/23/7 7/24/7 6/25/7 5/26/7 17/27/7 16/28/7
f 13/29/8 14/30/8 15/31/8
f 23/32/9 22/33/9 19/34/9 21/35/9 16/36/9 18/37/9 14/30/9 13/29/9
f 16/36/10 17/38/10 18/37/10
f 13/39/11 15/40/11 3/41/11 2/42/11 11/43/11 10/44/11 24/45/11 23/46/11
f 19/34/12 20/47/12 21/35/12
f 22/33/13 23/32/13 24/48/13
f 22/49/14 24/50/14 10/51/14 12/52/14 9/53/14 8/54/14 20/55/14 19/56/14
