# Blender 3.6.0
# www.blender.org
mtllib BeamBlock1_low.mtl
o LP_Beam_Block1
v -4.901000 5.000000 4.890000
v -4.901000 5.000000 -4.890000
v -4.901000 0.000002 4.890000
v -4.901000 0.000002 -4.890000
v 3.901000 5.000000 -4.890000
v 3.901000 5.000000 4.890000
v 3.901000 0.000002 4.890000
v 3.901000 0.000002 -4.890000
v -5.000000 0.248352 5.000000
v -5.000000 0.050002 4.743728
v -4.854942 0.050002 5.000000
v -5.000000 0.050002 -4.763948
v -5.000000 0.338070 -5.000000
v -4.714817 0.050002 -5.000000
v -4.728293 4.950001 -5.000000
v -5.000000 4.637500 -5.000000
v -5.000000 4.950001 -4.754410
v -5.000000 4.950001 4.813818
v -5.000000 4.647388 5.000000
v -4.849072 4.950001 5.000000
v 4.000000 0.050002 4.847784
v 4.000000 0.222436 5.000000
v 3.866907 0.050002 5.000000
v 3.747204 4.950001 5.000000
v 4.000000 4.621550 5.000000
v 4.000000 4.950001 4.833165
v 3.794892 0.050002 -5.000000
v 4.000000 0.448767 -5.000000
v 4.000000 0.050002 -4.772697
v 4.000000 4.950001 -4.841376
v 4.000000 4.616819 -5.000000
v 3.853946 4.950001 -5.000000
vn -0.0000 1.0000 -0.0000
vn 0.4508 -0.8926 -0.0000
vn 0.4508 0.8926 -0.0000
vn -0.0000 -1.0000 -0.0000
vn -0.0000 -0.0000 1.0000
vn -1.0000 -0.0000 -0.0000
vn -0.7577 -0.4920 0.4289
vn -0.4508 -0.8926 -0.0000
vn -0.5842 -0.4007 -0.7058
vn -0.0000 -0.0000 -1.0000
vn -0.6208 0.3780 -0.6868
vn 1.0000 -0.0000 -0.0000
vn -0.7176 0.3829 0.5817
vn -0.4508 0.8926 -0.0000
vn 0.6281 -0.5512 0.5492
vn -0.0000 -0.9104 0.4138
vn 0.5137 0.3607 0.7785
vn -0.0000 0.9104 0.4138
vn 0.7054 -0.3117 -0.6366
vn -0.0000 -0.9104 -0.4138
vn 0.6866 0.3589 -0.6322
vn -0.0000 0.9104 -0.4138
vt 0.445441 0.494934
vt 0.004954 0.494934
vt 0.004954 0.005505
vt 0.445441 0.005505
vt 0.455336 0.493604
vt 0.450395 0.487679
vt 0.450395 0.007826
vt 0.455336 0.005794
vt 0.450395 0.008349
vt 0.450395 0.492501
vt 0.895770 0.006345
vt 0.895770 0.494154
vt 0.695610 0.943296
vt 0.692734 0.949956
vt 0.619351 0.949956
vt 0.613872 0.937305
vt 0.613872 0.507114
vt 0.618920 0.499561
vt 0.692301 0.499561
vt 0.695610 0.506820
vt 0.982549 0.487614
vt 0.979240 0.500439
vt 0.905859 0.500439
vt 0.900811 0.491122
vt 0.900810 0.012290
vt 0.906023 -0.000000
vt 0.977743 -0.000000
vt 0.982549 0.011813
vt 0.900788 0.000527
vt 0.900737 0.013579
vt 0.893478 0.000787
vt 0.900737 0.487805
vt 0.900810 0.499188
vt 0.886467 0.499561
vt 0.613872 0.935684
vt 0.609066 0.949956
vt 0.537346 0.949956
vt 0.532133 0.936359
vt 0.532133 0.506870
vt 0.537691 0.499561
vt 0.607220 0.499561
vt 0.613872 0.509826
vt 0.013597 0.500439
vt 0.000000 0.500439
vt 0.000000 0.488149
vt 0.455953 1.000000
vt 0.450395 0.992062
vt 0.450395 0.507910
vt 0.455874 0.499561
vt 0.529257 0.499561
vt 0.532133 0.507179
vt 0.532133 0.988625
vt 0.525481 1.000000
vt 0.000000 0.009317
vt 0.000000 0.000000
vt 0.007553 0.000000
vt 0.450439 0.000000
vt 0.457055 0.000242
vt 0.437744 0.000000
vt 0.450395 0.000000
vt 0.460658 0.499029
vt 0.450497 0.498476
vt 0.450395 0.500439
vt 0.443086 0.500439
s 0
usemtl Material.001
f 5/1/1 2/2/1 1/3/1 6/4/1
f 8/5/2 29/6/2 21/7/2 7/8/2
f 5/1/3 6/4/3 26/9/3 30/10/3
f 7/8/4 3/11/4 4/12/4 8/5/4
f 23/13/5 22/14/5 25/15/5 24/16/5 20/17/5 19/18/5 9/19/5 11/20/5
f 10/21/6 9/22/6 19/23/6 18/24/6 17/25/6 16/26/6 13/27/6 12/28/6
f 9/29/7 10/30/7 3/11/7 11/31/7
f 3/11/8 10/30/8 12/32/8 4/12/8
f 12/32/9 13/33/9 14/34/9 4/12/9
f 14/35/10 13/36/10 16/37/10 15/38/10 32/39/10 31/40/10 28/41/10 27/42/10
f 2/2/11 15/43/11 16/44/11 17/45/11
f 31/46/12 30/47/12 26/48/12 25/49/12 22/50/12 21/51/12 29/52/12 28/53/12
f 18/54/13 19/55/13 20/56/13 1/3/13
f 18/54/14 1/3/14 2/2/14 17/45/14
f 7/8/15 21/7/15 22/57/15 23/58/15
f 7/8/16 23/58/16 11/31/16 3/11/16
f 24/59/17 25/60/17 26/9/17 6/4/17
f 24/59/18 6/4/18 1/3/18 20/56/18
f 8/5/19 27/61/19 28/62/19 29/6/19
f 4/12/20 14/34/20 27/61/20 8/5/20
f 30/10/21 31/63/21 32/64/21 5/1/21
f 15/43/22 2/2/22 5/1/22 32/64/22
